# xmcd
#
# Track frame offsets: 
#        151
#        24386
#        51816
#        79658
#        100829
#        120148
#        146971
#        169724
#        192499
#        223787
#        243111
#        270327
#        302311
#
# Disc length: 4225 seconds
#
# Revision: 2
# Processed by: cddbd v1.5.2PL0 Copyright (c) Steve Scherf et al.
# Submitted via: ExactAudioCopy v0.95b4
#
DISCID=a3107f0d
DTITLE=VA Chill. - Cafe Del Mar - Dreams
DYEAR=1980
DGENRE=Easy Listening
TTITLE0=A Man Called Adam - Estelle
TTITLE1=D'Note - D'Votion
TTITLE2=Sabres Of Paradise - Haunted Dancehall
TTITLE3=Miro - Emotions Of Paradise
TTITLE4=Nightmares On Wax - Nights Interlude (Original Version)
TTITLE5=Sabres Of Paradise - Smokebelch II (Beatless Mix)
TTITLE6=Afterlife - Blue Bar
TTITLE7=Underworld - Second Hand
TTITLE8=A Man Called Adam and Andy Parker - Easter Song
TTITLE9=Penguin Cafe Orchestra - Music For A Found Harmonium
TTITLE10=Nacho Sotomayor - Cafe Del Mar
TTITLE11=12
TTITLE12=13
EXTD=
EXTT0=
EXTT1=
EXTT2=
EXTT3=
EXTT4=
EXTT5=
EXTT6=
EXTT7=
EXTT8=
EXTT9=
EXTT10=
EXTT11=
EXTT12=
PLAYORDER=
